<svg width="683" height="683" viewBox="0 0 683 683" fill="none" xmlns="http://www.w3.org/2000/svg">
<path d="M302.8 28.8C300.267 32 300 34.1333 300 51.8667V71.3333L288.267 73.6C244.4 82.1333 202.933 107.067 178.267 139.867C151.333 175.733 141.733 226.667 153.467 271.333C163.867 311.067 191.6 339.733 240.267 360.8C252.4 366.133 277.067 374.667 292.667 379.067L299.333 380.933L299.733 443.2C299.867 479.2 299.467 505.333 298.8 505.333C294.933 505.333 274.267 497.333 259.2 490C238.8 480.133 222.533 469.467 206.133 455.467C191.2 442.667 189.467 442.4 180.4 453.067C166.8 468.933 129.733 515.467 128.933 517.733C127.333 522.133 130.667 526.533 143.6 537.333C184.8 571.6 232.667 594.4 284.4 604.267L300 607.333V628.8C300 648.533 300.267 650.533 302.8 653.867L305.467 657.333H343.2C379.867 657.333 380.933 657.2 383.467 654.533C385.733 652.133 386 649.2 386.4 630.667L386.8 609.733L399.067 608C454.4 600.667 502.267 573.867 528 536C546.933 508 556.133 470.933 553.333 434C547.733 364 503.2 323.2 403.333 296.667L387.333 292.4L386.933 232.933C386.8 200.133 386.933 173.333 387.2 173.333C389.467 173.333 414.667 183.867 425.2 189.333C440.667 197.333 452.933 205.333 467.2 216.8C478 225.467 482.533 227.067 486.933 223.6C489.333 221.867 537.467 156.8 540 152C542.4 147.6 539.733 143.067 530.267 135.2C493.733 104.933 448.8 83.7333 402.4 74.6667L386.8 71.6L386.4 51.2C386 33.4667 385.733 30.5333 383.467 28.1333C380.933 25.4667 379.867 25.3333 343.2 25.3333H305.467L302.8 28.8ZM368 64.6667C368 89.2 367.333 88.1333 386 90.6667C430.4 96.6667 476.533 116.667 514.667 146.667L518.8 150L505.067 168.667C497.467 178.933 488.667 190.8 485.6 195.067L479.867 202.667L472.267 196.933C450.8 180.4 424.8 166.4 399.733 158.133C380.8 151.867 375.6 151.067 371.333 153.867L368 156V230C368 294.8 368.267 304 370 305.867C372.267 308 372.933 308.267 396 314C463.733 331.067 505.733 356.8 523.067 392.267C526.4 399.067 530.133 408.4 531.333 412.933C536.533 433.467 536.267 462.667 530.667 484.667C526.933 499.867 515.2 522.533 505.067 534.667C478.933 565.6 438.533 584.8 387.333 590.667C367.2 592.933 368 591.867 368 617.333V638.667H343.333H318.667V616.8C318.667 595.067 318.667 594.8 315.333 592.267C313.467 590.8 308.8 589.333 304.4 588.8C256.267 583.2 198.267 558.133 159.733 526.4L150.667 518.933L171.467 493.467L192.133 468L200.4 474.933C218.533 490 246.4 506.267 270.133 515.467C285.2 521.2 304.533 526.667 310.267 526.667C318.933 526.667 318.667 528.933 318.667 445.867C318.667 376.4 318.533 370.8 316.4 368.267C314.8 366.4 309.2 364.267 300.667 361.867C235.467 344.533 196.4 320.133 179.467 286.4C172.267 271.867 169.733 262.933 167.867 244.667C165.333 219.467 169.867 194.667 181.333 171.333C202.267 128.8 246.4 98.9333 301.867 90C318.933 87.2 318.667 87.7333 318.667 63.7333V44H343.333H368V64.6667Z" fill="#31CF00"/>
<path d="M298.667 153.2C259.467 165.733 235.467 201.467 242.8 236.267C246.8 255.067 259.2 268.933 282 280.4C302.267 290.533 312.267 292.8 316.4 288.267C318.4 286 318.667 279.467 318.667 220.933C318.667 157.733 318.534 155.867 316 153.333C312.8 150.133 308.4 150 298.667 153.2ZM300 220.667C300 246.667 299.6 268 299.2 268C298.8 268 293.734 265.6 288 262.533C274.134 255.333 264.934 245.867 261.867 235.2C257.2 219.2 262.267 201.733 275.334 188.8C282 182 294.934 173.467 298.4 173.333C299.6 173.333 300 183.733 300 220.667Z" fill="#31CF00"/>
<path d="M371.467 384.133L368 386.8V456.4C368 494.667 368.533 526.667 369.067 527.467C371.333 530.8 375.733 531.867 382.8 530.8C419.867 524.667 447.467 506.133 457.467 480.267C461.6 469.733 462.533 448.8 459.333 437.867C452.4 413.867 429.6 397.067 385.867 384.133C374.4 380.8 375.733 380.8 371.467 384.133ZM396.533 407.333C420.667 416.4 434.667 426.667 440 438.933C442.533 444.8 442.933 447.6 442.4 457.867C441.733 471.467 438.4 479.867 429.867 489.333C421.867 498.133 404.4 507.6 391.6 510L386.667 510.933V457.467C386.667 428.133 386.933 404 387.2 404C387.467 404 391.733 405.467 396.533 407.333Z" fill="#31CF00"/>
</svg>
