<svg xmlns="http://www.w3.org/2000/svg" xmlns:xlink="http://www.w3.org/1999/xlink" viewBox="0,0,256,256" width="50px" height="50px" fill-rule="nonzero"><g fill="#31cf00" fill-rule="nonzero" stroke="none" stroke-width="1" stroke-linecap="butt" stroke-linejoin="miter" stroke-miterlimit="10" stroke-dasharray="" stroke-dashoffset="0" font-family="none" font-weight="none" font-size="none" text-anchor="none" style="mix-blend-mode: normal"><g transform="scale(5.12,5.12)"><path d="M46.894,23.986c0.004,0 0.007,0 0.011,0c0.279,0 0.545,-0.117 0.734,-0.322c0.192,-0.208 0.287,-0.487 0.262,-0.769c-1.004,-11.043 -9.747,-19.789 -20.791,-20.795c-0.28,-0.022 -0.562,0.069 -0.77,0.262c-0.208,0.192 -0.324,0.463 -0.321,0.746c0.174,14.676 2.11,20.673 20.875,20.878zM46.894,26.014c-18.765,0.205 -20.7,6.202 -20.874,20.878c-0.003,0.283 0.113,0.554 0.321,0.746c0.186,0.171 0.429,0.266 0.679,0.266c0.03,0 0.061,-0.001 0.091,-0.004c11.044,-1.006 19.787,-9.751 20.79,-20.795c0.025,-0.282 -0.069,-0.561 -0.262,-0.769c-0.193,-0.208 -0.462,-0.311 -0.745,-0.322zM22.823,2.105c-11.009,1.035 -19.724,9.779 -20.723,20.792c-0.025,0.282 0.069,0.561 0.262,0.769c0.189,0.205 0.456,0.321 0.734,0.321c0.004,0 0.008,0 0.012,0c18.703,-0.215 20.634,-6.209 20.81,-20.875c0.003,-0.283 -0.114,-0.555 -0.322,-0.747c-0.21,-0.192 -0.491,-0.286 -0.773,-0.26zM3.107,26.013c-0.311,-0.035 -0.555,0.113 -0.746,0.321c-0.192,0.208 -0.287,0.487 -0.262,0.769c0.999,11.013 9.715,19.757 20.724,20.792c0.031,0.003 0.063,0.004 0.094,0.004c0.25,0 0.492,-0.094 0.678,-0.265c0.208,-0.192 0.325,-0.464 0.322,-0.747c-0.176,-14.665 -2.106,-20.659 -20.81,-20.874z"></path></g></g></svg>