<svg width="683" height="683" viewBox="0 0 683 683" fill="none" xmlns="http://www.w3.org/2000/svg">
<g clip-path="url(#clip0_62_90)">
<path d="M137.333 108.667C87.5999 120 53.3332 162.4 53.3332 212.667C53.3332 245.733 67.7332 275.467 93.7332 296.267L100.267 301.333H53.3332H6.5332L3.3332 304.667C-1.0668 308.933 -1.0668 315.067 3.3332 319.333L6.5332 322.667H62.6665H118.667V333.333V344H96.6665C69.0665 344 65.3332 345.333 65.3332 355.867C65.3332 358.133 66.6665 360.8 68.7999 362.8C72.1332 365.867 72.9332 366 95.4665 366.4L118.667 366.8V377.467V388H62.6665H6.5332L3.3332 391.333C-1.0668 395.6 -1.0668 401.733 3.3332 406L6.5332 409.333H62.6665H118.667V433.2V456.933L111.467 461.733C102.667 467.6 95.8665 475.733 91.1999 486C88.2665 492.4 87.4665 496.4 86.9332 507.333C86.3999 519.467 86.6665 520.933 89.3332 524.267L92.1332 528L142.933 528.267L193.733 528.667L195.333 534.267C198.933 546.267 212.133 562 223.467 567.733C242.267 577.333 265.067 576.8 282.933 566.267C293.867 559.867 305.733 544.133 309.867 530.267C310.533 528.133 316.667 528 414.533 528H518.4L520.533 534.133C525.2 547.733 537.067 561.733 549.467 568C573.733 580.4 603.6 574.933 621.6 554.8C626.267 549.6 632.4 538.4 635.2 530.4C635.867 528.267 638.133 528 656.533 528H677.2L679.867 524.533C682.667 521.067 682.667 519.733 682.667 457.467V394L663.733 364.667C636.133 322 623.733 310.533 597.867 304C588.533 301.6 583.067 301.333 537.733 301.333H488V274.133C488 259.2 487.333 243.733 486.667 239.867C483.333 222.267 471.2 206.4 455.067 198.4L446 194L354.8 193.333L263.6 192.667L261.333 184.267C255.867 164.4 242.4 143.733 226.267 130.667C216.667 122.8 197.6 112.933 186 109.867C174.667 106.933 148.267 106.267 137.333 108.667ZM184.133 132C210.8 140.933 230.933 160.933 239.467 187.067C244.667 202.667 244.667 222.667 239.467 238.267C226 279.467 183.867 304.133 142 295.333C113.467 289.333 88.9332 267.6 79.0665 239.333C75.8665 230 75.4665 226.667 75.4665 212.667C75.4665 198.667 75.8665 195.333 79.0665 186.267C88.9332 158.133 113.067 136.4 141.333 130C153.067 127.333 172.933 128.267 184.133 132ZM445.867 217.867C452.8 221.333 459.733 228.4 462.8 235.2C465.2 240.4 465.333 246.133 465.333 346.933V453.333H303.333H141.333V431.333V409.333H154C165.733 409.333 167.067 409.067 170 406C174.4 401.733 174.4 395.6 170 391.333C167.067 388.267 165.733 388 154 388H141.333V377.333V366.667H179.067C212.267 366.667 217.2 366.4 221.2 364.267C226.933 361.467 228.933 356.267 226.4 351.067C223.2 344.4 221.067 344 179.733 344H141.333V333.333V322.667H213.2C283.733 322.667 285.067 322.667 288.533 319.867C293.2 316.267 293.333 308.4 288.933 304.267C286 301.467 284.667 301.333 252.267 301.067L218.667 300.667L226.133 294.8C246.667 278.8 261.733 250.8 264.8 222.933L265.733 214.667L353.2 214.933C436.667 215.333 440.933 215.467 445.867 217.867ZM589.6 324.133C610.4 328.533 619.467 336.8 643.2 373.067L661.333 400.933V453.733V506.667H648.8H636.267L635.467 502.267C633.2 489.867 621.733 473.333 610 465.467C586.8 449.733 554.933 452.8 535.067 472.667C527.867 479.867 520.667 492.533 518.933 501.067L517.867 506L502.933 506.4L488 506.8V414.667V322.667H535.333C564.933 322.667 585.2 323.2 589.6 324.133ZM206.667 475.333C206.667 475.733 204.933 478.533 202.667 481.467C198.533 487.333 193.333 499.733 193.333 504C193.333 506.533 192.133 506.667 150.667 506.667C127.2 506.667 108 506.133 108 505.6C108 504.933 108.933 501.467 110 497.867C112.533 489.067 118.933 481.733 127.2 477.867C133.867 474.8 134.933 474.667 170.4 474.667C190.267 474.667 206.667 474.933 206.667 475.333ZM465.333 490.667V506.667H388.133H310.933L310 501.6C308.8 494.533 304.533 485.467 299.867 479.6L295.867 474.667H380.667H465.333V490.667ZM269.2 481.467C282.4 488 289.6 499.733 289.733 514.667C289.867 526.267 285.733 535.467 277.067 543.333C262.667 556.267 241.867 556.533 227.467 543.867C218.267 535.733 214.133 526.933 214.133 515.333C214.267 499.6 221.2 488.267 234.933 481.467C246.533 475.6 257.6 475.6 269.2 481.467ZM592.667 480.533C600.933 484.267 609.467 493.467 612.667 501.733C615.6 509.333 614.933 525.067 611.467 531.6C607.867 538.8 601.333 545.333 594.133 549.067C588.533 552 585.6 552.667 577.333 552.667C565.467 552.667 558 549.6 550.133 541.867C542.267 534 539.333 526.533 539.467 514.667C539.467 506.133 540 503.6 543.333 497.467C547.733 489.467 555.733 482.267 563.467 479.467C571.867 476.4 584.8 476.8 592.667 480.533Z" fill="#31CF00"/>
<path d="M155.333 158C152 161.2 152 161.467 152 184.933V208.667L140 225.2C126.933 243.067 125.333 248 130.667 253.333C134.133 256.8 141.333 257.333 144.933 254.4C146.667 253.067 168.933 222.667 171.6 218.133C172.8 216.133 173.2 207.067 173.333 188.267C173.333 161.333 173.333 161.2 170 158C168 155.867 165.2 154.667 162.667 154.667C160.133 154.667 157.333 155.867 155.333 158Z" fill="#31CF00"/>
<path d="M545.867 336.4L542 339.733L541.6 379.6C541.333 401.467 541.6 420.667 542 422.4C542.4 424 543.867 426.533 545.333 428C547.867 430.533 550 430.667 589.733 430.667C628.667 430.667 631.6 430.533 635.6 428C641.6 424.4 644.4 418.267 643.6 410.8C643.2 406.133 639.467 398.533 628.533 379.333C612.133 350.8 606.8 344.4 593.6 338.267C585.333 334.4 583.467 334 567.2 333.6C550.133 333.067 549.733 333.067 545.867 336.4ZM587.467 359.333C590.4 361.067 593.467 363.333 594.267 364.267C595.867 366.133 620 408 620 408.8C620 409.067 607.467 409.333 592 409.333H564V381.867V354.267L573.067 355.2C578.667 355.867 584 357.333 587.467 359.333Z" fill="#31CF00"/>
<path d="M244.4 499.333C235.867 503.067 232 515.733 236.8 524C243.6 535.333 261.733 534.933 267.333 523.2C271.733 513.867 268 502.933 259.333 499.2C253.6 496.933 249.867 496.933 244.4 499.333Z" fill="#31CF00"/>
<path d="M568.4 500C562.667 503.467 559.867 508.133 559.733 514.267C559.6 524.933 566.933 532.4 577.6 532.4C583.6 532.4 588.533 529.333 592 523.6C595.333 518.267 595.333 512.667 592.267 506.8C587.6 498.133 576.533 494.933 568.4 500Z" fill="#31CF00"/>
</g>
<defs>
<clipPath id="clip0_62_90">
<rect width="682.667" height="682.667" fill="white"/>
</clipPath>
</defs>
</svg>
