<svg width="683" height="683" viewBox="0 0 683 683" fill="none" xmlns="http://www.w3.org/2000/svg">
<path d="M155.066 119.2C140.133 122 131.466 125.2 119.866 131.867C68.5331 161.333 29.5998 238.667 9.46647 350.667C2.7998 388.133 0.799805 409.6 0.799805 444C0.799805 477.867 2.13314 491.867 7.59981 510.667C19.5998 552.533 48.7998 571.733 87.5998 563.333C118.8 556.667 155.733 533.333 208.133 487.333C228.266 469.6 238.666 463.067 257.733 455.867C315.333 434 401.2 438.8 447.733 466.4C452.8 469.467 464.933 478.933 474.533 487.333C541.466 546.133 585.2 569.2 620.933 564.4C652.267 560.267 671.6 536.267 679.467 491.333C682.8 472.533 682.8 420.133 679.6 393.333C669.733 311.733 646.8 234.267 619.6 190.667C595.333 152 569.867 130.133 538 121.067C528.933 118.533 524.266 118 506.666 118C482.8 118 475.866 119.2 421.066 132.667C378.133 143.067 356.266 147.067 341.333 147.067C326.8 147.067 306.4 143.467 261.866 132.8C242.133 128.133 219.066 122.933 210.666 121.467C190.533 117.733 167.6 116.8 155.066 119.2ZM218 154C226.8 155.867 243.6 159.867 255.2 162.8C307.733 176 332.933 179.733 353.733 177.333C373.466 175.2 386.133 172.667 422.666 164C476.666 151.2 482.4 150.133 502.666 150.267C518.533 150.267 522 150.667 531.333 153.733C560.533 163.467 582 185.467 602.667 226.667C622.933 267.067 636.933 317.467 646.933 385.6C650.8 412.4 651.333 474.4 647.733 490.667C639.867 527.067 625.467 539.2 598.133 532.8C572.8 526.8 540.533 505.867 496 466.133C470.266 443.333 455.866 434 432.933 425.733C405.866 416 384.266 412.133 350.666 411.067C313.866 410 286.666 413.467 255.333 423.6C227.6 432.533 207.466 444.8 178 471.333C155.333 491.6 126.266 512.8 109.333 521.333C76.5331 537.867 55.8665 536.667 44.3998 517.467C39.0665 508.533 36.5331 500.533 33.8665 483.333C30.9331 465.2 31.9998 411.467 35.8665 384.4C48.2665 296 74.5331 222 107.066 184.133C121.333 167.467 140.933 155.067 159.333 151.333C173.2 148.533 198.133 149.6 218 154Z" fill="#31CF00"/>
<path d="M176.533 202.8C166.667 204 155.867 209.467 148.667 216.667C142.133 223.2 134.667 237.067 134.667 242.8C134.667 246.4 132.533 248 127.733 248C126.267 248 121.333 249.733 116.667 252C95.3333 262.267 84.1333 285.333 89.8667 307.6C94.6667 326.533 106.8 338.8 125.867 344C133.733 346.267 134 346.4 134.933 351.6C137.2 364.933 149.2 379.733 162.8 385.867C188.533 397.733 219.2 384.8 229.2 358C230.8 353.867 232 349.467 232 348.133C232 346.267 233.333 345.467 237.467 344.8C251.733 342.533 266.267 330.8 273.067 316.267C278 305.867 278.267 288.133 273.6 278C265.867 261.067 253.867 251.467 235.867 247.467C233.067 246.8 232.133 245.733 231.467 241.733C230.133 233.467 224.8 223.733 217.867 216.8C206.933 205.867 192.133 200.8 176.533 202.8ZM192.933 235.467C198.533 238.933 200.267 243.467 201.333 256.667C202.667 274.533 206.933 278.667 224 278.667C235.067 278.667 240.267 280.8 244 287.067C249.2 295.467 246 308 237.733 312C235.6 312.933 228.933 314 222.667 314.4C205.6 315.333 201.333 319.467 201.333 335.333C201.333 351.067 195.2 358.667 182.533 358.667C171.2 358.667 165.333 351.067 165.333 336.667C165.333 319.467 159.467 313.333 142.933 313.333C127.6 313.333 120 307.467 120 295.6C120 284.8 127.733 278.667 141.6 278.533C159.733 278.4 164.267 274 165.333 255.333C166 243.733 166.4 242.4 170 238.667C176.267 232.133 185.6 230.8 192.933 235.467Z" fill="#31CF00"/>
<path d="M476.666 209.067C455.866 218.8 454.133 248.133 473.6 260.933C478.4 264.133 480.4 264.667 489.2 264.667C498 264.667 500.133 264.133 504.933 260.933C508.133 258.933 512.266 254.8 514.266 251.733C517.466 246.933 518 244.933 518 236C518 227.067 517.466 225.067 514.266 220.267C508.533 211.6 501.333 207.467 490.8 206.933C484.266 206.667 480.533 207.2 476.666 209.067Z" fill="#31CF00"/>
<path d="M419.333 268.133C413.2 269.867 404.667 277.867 402 284.267C393.867 304.267 407.467 325.467 428.4 325.467C441.067 325.467 450.4 319.733 455.467 308.8C460.8 297.333 459.2 286.267 450.933 277.067C442.667 267.867 431.2 264.667 419.333 268.133Z" fill="#31CF00"/>
<path d="M538 269.2C522.4 276.4 516 293.333 523.2 308.667C528.533 320.133 537.2 325.467 550 325.467C565.867 325.467 578.8 312.533 578.8 296.8C578.8 283.867 573.467 275.2 562 269.867C554 266 545.333 265.733 538 269.2Z" fill="#31CF00"/>
<path d="M480 328.667C453.067 337.067 453.867 376.933 481.2 384.933C499.867 390.267 518.533 376.267 518.667 356.933C518.667 344.133 510 332.133 498.133 328.667C490.133 326.267 487.867 326.267 480 328.667Z" fill="#31CF00"/>
</svg>
