<svg width="512" height="512" viewBox="0 0 512 512" fill="none" xmlns="http://www.w3.org/2000/svg">
<g clip-path="url(#clip0_62_7)">
<path opacity="0.928" fill-rule="evenodd" clip-rule="evenodd" d="M233.5 -0.5C248.167 -0.5 262.833 -0.5 277.5 -0.5C361.902 9.93367 425.735 51.6003 469 124.5C494.928 173.141 504.261 224.808 497 279.5C488.466 344.649 470.466 406.983 443 466.5C434.533 474.126 424.7 476.626 413.5 474C410.985 483.382 405.985 491.049 398.5 497C383.898 502.368 369.231 507.201 354.5 511.5C348.833 511.5 343.167 511.5 337.5 511.5C323.368 506.508 309.368 501.008 295.5 495C279.361 482.187 273.861 465.687 279 445.5C295.742 396.273 313.075 347.273 331 298.5C343.307 281.285 359.807 275.118 380.5 280C393.474 283.88 406.141 288.546 418.5 294C426.449 300.617 432.949 308.45 438 317.5C447.361 280.853 449.361 243.853 444 206.5C434.098 165.94 412.264 133.44 378.5 109C321.578 70.569 259.911 60.569 193.5 79C140.155 95.0668 100.988 127.9 76.0002 177.5C65.946 202.877 61.946 229.211 64.0002 256.5C65.3735 277.073 68.3735 297.407 73.0002 317.5C77.7461 309.186 83.5794 301.686 90.5002 295C107.071 286.976 124.405 281.476 142.5 278.5C166.194 280.017 181.028 292.351 187 315.5C201.803 358.908 216.803 402.242 232 445.5C236.643 464.566 231.809 480.733 217.5 494C214.661 495.92 211.661 497.587 208.5 499C196.697 503.099 185.031 507.265 173.5 511.5C167.833 511.5 162.167 511.5 156.5 511.5C141.769 507.201 127.102 502.368 112.5 497C105.002 491.015 100.002 483.348 97.5002 474C80.398 477.701 68.5646 471.534 62.0002 455.5C34.5083 391.199 17.8417 324.199 12.0002 254.5C9.5818 197.436 25.0818 145.936 58.5002 100C67.5799 97.405 71.4132 100.905 70.0002 110.5C31.1176 168.097 18.7843 231.097 33.0002 299.5C42.4743 353.403 58.141 405.403 80.0002 455.5C83.3275 458.154 87.1608 459.154 91.5002 458.5C80.6472 425.108 69.4806 391.775 58.0002 358.5C55.8273 350.371 56.6606 342.538 60.5002 335C52.713 304.823 48.3797 274.156 47.5002 243C47.7184 185.904 69.7184 139.237 113.5 103C164.812 63.3351 222.812 47.6684 287.5 56C352.279 65.2041 402.779 96.7041 439 150.5C455.984 178.934 464.151 209.768 463.5 243C462.621 274.156 458.287 304.823 450.5 335C455.064 343.947 455.564 353.113 452 362.5C440.656 394.367 429.822 426.367 419.5 458.5C426.786 459.441 431.619 456.441 434 449.5C458.364 391.403 474.364 331.07 482 268.5C488.512 171.018 450.679 96.5184 368.5 45C293.998 5.16502 219.332 4.83169 144.5 44C123.655 55.7724 104.989 70.4391 88.5002 88C78.0002 90.8333 74.1669 87 77.0002 76.5C119.689 31.7394 171.856 6.07272 233.5 -0.5ZM136.5 294.5C149.637 292.82 159.803 297.487 167 308.5C184.065 356.361 200.731 404.361 217 452.5C219.33 467.813 213.497 478.646 199.5 485C192.497 487.111 185.663 489.611 179 492.5C159.667 437.167 140.333 381.833 121 326.5C117.281 323.098 113.114 322.598 108.5 325C106.571 328.256 106.071 331.756 107 335.5C125.599 388.462 144.099 441.462 162.5 494.5C161.833 494.833 161.167 495.167 160.5 495.5C147.743 491.97 135.077 488.137 122.5 484C120 482.833 118.167 481 117 478.5C101.672 436.016 86.8386 393.349 72.5002 350.5C73.0259 347.728 73.8593 345.062 75.0002 342.5C83.1145 330.718 91.6145 319.218 100.5 308C112.483 303.176 124.483 298.676 136.5 294.5ZM361.5 294.5C365.846 294.334 370.179 294.501 374.5 295C382.5 297.667 390.5 300.333 398.5 303C383.944 343.333 369.777 383.833 356 424.5C354.378 433.79 358.211 437.29 367.5 435C369.049 433.786 370.215 432.286 371 430.5C384.606 390.349 398.606 350.349 413 310.5C421.054 320.888 428.721 331.554 436 342.5C437.141 345.062 437.974 347.728 438.5 350.5C424.162 393.349 409.328 436.016 394 478.5C392.833 481 391 482.833 388.5 484C375.923 488.137 363.257 491.97 350.5 495.5C349.833 495.167 349.167 494.833 348.5 494.5C352.432 483.871 356.265 473.205 360 462.5C361.773 455.697 359.273 451.697 352.5 450.5C349.889 450.556 347.722 451.556 346 453.5C341.53 466.576 336.864 479.576 332 492.5C325.337 489.611 318.503 487.111 311.5 485C295.803 477.613 290.303 465.447 295 448.5C311 402.5 327 356.5 343 310.5C347.217 302.774 353.384 297.441 361.5 294.5Z" fill="#31CF00"/>
</g>
<defs>
<clipPath id="clip0_62_7">
<rect width="512" height="512" fill="white"/>
</clipPath>
</defs>
</svg>
