<svg width="683" height="683" viewBox="0 0 683 683" fill="none" xmlns="http://www.w3.org/2000/svg">
<g clip-path="url(#clip0_62_76)">
<path d="M18.0001 173.2C11.2001 176.267 3.20013 185.067 1.4668 191.6C-0.533203 198.667 -0.533203 484 1.4668 491.067C3.20013 497.6 11.2001 506.4 18.0001 509.467C23.0668 511.867 36.5335 512 341.333 512C646.133 512 659.6 511.867 664.667 509.467C671.467 506.4 679.467 497.6 681.2 491.067C683.2 484 683.2 198.667 681.2 191.6C679.467 185.067 671.467 176.267 664.667 173.2C659.6 170.8 646.133 170.667 341.333 170.667C36.5335 170.667 23.0668 170.8 18.0001 173.2ZM662.133 191.2L666.667 195.733V222.533V249.333H341.333H16.0001V222.533V195.733L20.5335 191.2L25.0668 186.667H341.333H657.6L662.133 191.2ZM101.333 288V310.667H58.6668H16.0001V288V265.333H58.6668H101.333V288ZM181.333 288V310.667H149.333H117.333V288V265.333H149.333H181.333V288ZM258.667 288V310.667H228H197.333V288V265.333H228H258.667V288ZM334.667 288V310.667H304.667H274.667V288V265.333H304.667H334.667V288ZM412 288V310.667H381.333H350.667V288V265.333H381.333H412V288ZM488 288V310.667H458H428V288V265.333H458H488V288ZM565.333 288V310.667H534.667H504V288V265.333H534.667H565.333V288ZM666.667 288V310.667H624H581.333V288V265.333H624H666.667V288ZM61.3335 349.333V372H38.6668H16.0001V349.333V326.667H38.6668H61.3335V349.333ZM141.333 349.333V372H109.333H77.3335V349.333V326.667H109.333H141.333V349.333ZM221.333 349.333V372H189.333H157.333V349.333V326.667H189.333H221.333V349.333ZM298.667 349.333V372H268H237.333V349.333V326.667H268H298.667V349.333ZM374.667 349.333V372H344.667H314.667V349.333V326.667H344.667H374.667V349.333ZM452 349.333V372H421.333H390.667V349.333V326.667H421.333H452V349.333ZM528 349.333V372H498H468V349.333V326.667H498H528V349.333ZM605.333 349.333V372H574.667H544V349.333V326.667H574.667H605.333V349.333ZM666.667 380.667V434.667H644H621.333V380.667V326.667H644H666.667V380.667ZM101.333 411.333V434.667H58.6668H16.0001V411.333V388H58.6668H101.333V411.333ZM181.333 411.333V434.667H149.333H117.333V412.267C117.333 399.867 117.733 389.333 118.267 388.933C118.667 388.4 133.067 388 150.267 388H181.333V411.333ZM258.4 411.6L258.667 434.667H228H197.333V412.267C197.333 399.867 197.733 389.333 198.267 388.8C198.8 388.4 212.4 388.133 228.533 388.267L258 388.667L258.4 411.6ZM334.667 411.333V434.667H304.667H274.667V411.333V388H304.667H334.667V411.333ZM411.733 411.6L412 434.667H381.333H350.667V412.267C350.667 399.867 351.067 389.333 351.6 388.8C352.133 388.4 365.733 388.133 381.867 388.267L411.333 388.667L411.733 411.6ZM488 411.333V434.667H458H428V411.333V388H458H488V411.333ZM604.667 411.333V434L554.4 434.4L504 434.667V412.267C504 399.867 504.4 389.333 504.933 388.933C505.467 388.4 528 388.133 555.2 388.267L604.667 388.667V411.333ZM141.333 473.333V496H83.2001H25.0668L20.5335 491.467L16.0001 486.933V468.8V450.667H78.6668H141.333V473.333ZM221.333 473.333V496H189.333H157.333V473.333V450.667H189.333H221.333V473.333ZM452 473.333V496H344.667H237.333V473.333V450.667H344.667H452V473.333ZM528 473.333V496H498H468V473.333V450.667H498H528V473.333ZM666.667 468.8V486.933L662.133 491.467L657.6 496H600.8H544V473.333V450.667H605.333H666.667V468.8Z" fill="#31CF00"/>
<path d="M40.2666 196C35.6 198 34.4 203.2 34.9333 219.733C35.3333 233.867 35.6 235.067 38.5333 237.467C41.4666 239.867 44.6666 240 108.8 240C174.267 240 176.133 239.867 178.667 237.333C181.067 234.933 181.333 232.933 181.333 217.6C181.333 204.933 180.8 199.867 179.467 197.867C177.6 195.467 175.2 195.333 110.4 195.067C71.7333 194.933 42 195.333 40.2666 196ZM78.6666 217.333V224.133L65.0666 223.733L51.3333 223.333L50.9333 218.933C50.1333 210.933 50.6666 210.667 65.3333 210.667H78.6666V217.333ZM122 217.333V223.333L108.4 223.733L94.6666 224.133V217.333V210.533L108.4 210.933L122 211.333V217.333ZM165.333 217.333V224H152H138.667V217.333V210.667H152H165.333V217.333Z" fill="#31CF00"/>
</g>
<defs>
<clipPath id="clip0_62_76">
<rect width="682.667" height="682.667" fill="white"/>
</clipPath>
</defs>
</svg>
