<svg width="115" height="68" viewBox="0 0 115 68" fill="none" xmlns="http://www.w3.org/2000/svg">
<path opacity="0.957" fill-rule="evenodd" clip-rule="evenodd" d="M57.9179 47.3807C57.5567 48.0425 56.9581 48.4044 56.1222 48.4561C41.3331 48.5285 26.5336 48.5285 11.7445 48.4561C10.7022 48.3837 10.0314 47.846 9.73207 46.8533C9.65982 39.5115 9.65982 32.1696 9.73207 24.8278C9.92815 23.9902 10.4339 23.4421 11.2285 23.1733C26.3685 23.1526 41.4982 23.1733 56.6382 23.225C57.1749 23.3801 57.567 23.6593 57.825 24.0729H60.2813C59.7962 22.5322 58.7539 21.5291 57.1542 21.0534C49.8267 20.8983 42.4993 20.8466 35.1718 20.8983C35.1924 20.5467 35.244 20.2055 35.3266 19.8643C35.7188 17.9513 36.8747 16.7931 38.7839 16.4002C40.0224 16.1727 41.2608 15.9659 42.4993 15.7797C44.3363 15.5315 45.8637 14.7146 47.0918 13.3497C48.2684 11.4263 48.805 9.31682 48.6915 7.04188C47.9691 7.05222 47.2466 7.01086 46.5242 6.93848C46.4726 7.98288 46.3488 9.01694 46.163 10.0407C45.5954 12.1915 44.2021 13.3807 41.9833 13.6082C40.59 13.784 39.2174 14.0218 37.8551 14.332C36.3896 14.7043 35.2028 15.4798 34.2946 16.6587C33.4896 17.9616 33.0252 19.3679 32.9013 20.8983C25.5016 20.8466 18.1019 20.8983 10.7125 21.0534C9.03028 21.5498 7.96728 22.6356 7.51318 24.3107V47.3704C8.03952 49.2006 9.24701 50.2864 11.1253 50.6277C26.3272 50.7 41.5395 50.7 56.7414 50.6277C58.6197 50.2864 59.8169 49.2006 60.3535 47.3807H57.9179Z" fill="#218C00"/>
<path d="M20.7026 38.3222H13.5505C13.4783 38.3222 13.4164 38.3015 13.3751 38.2498C13.3338 38.1981 13.3029 38.1464 13.3029 38.0844C13.3029 38.0327 13.3132 37.9913 13.3441 37.9499L19.1132 29.6878C19.2164 29.5533 19.3506 29.481 19.5157 29.481H25.9969C26.162 29.481 26.2962 29.5533 26.3994 29.6878L27.0599 30.6391C27.1218 30.7218 27.1528 30.8149 27.1528 30.9183C27.1528 31.0217 27.1218 31.1148 27.0599 31.1975L22.8698 37.1847C22.6118 37.557 22.2919 37.8362 21.9204 38.0327C21.5592 38.2291 21.1463 38.3222 20.7026 38.3222ZM18.494 37.6501C18.8655 37.6501 19.1545 37.4949 19.3919 37.1847L23.6748 31.0631C23.7058 31.0114 23.7161 30.97 23.7161 30.9183C23.7161 30.8666 23.7058 30.8252 23.6748 30.7839L23.3136 30.2565C23.262 30.1841 23.2001 30.1531 23.1072 30.1531H22.4158C22.3332 30.1531 22.2713 30.1841 22.2093 30.2565L17.3175 37.2675C17.2865 37.3192 17.2762 37.3605 17.2762 37.4122C17.2762 37.4743 17.2968 37.5363 17.3381 37.588C17.3794 37.6397 17.4413 37.6604 17.5136 37.6604H18.494V37.6501Z" fill="#31C800"/>
<path d="M26.9155 38.3223H24.1393C24.0464 38.3223 23.9742 38.2809 23.9226 38.1879C23.9019 38.1465 23.8916 38.1155 23.8916 38.0741C23.8916 38.0224 23.9019 37.981 23.9329 37.9397L27.6276 32.6556C27.7308 32.5108 27.8649 32.4385 28.0301 32.4385H30.7959C30.8888 32.4385 30.9611 32.4798 31.0127 32.5729C31.0333 32.6143 31.0436 32.6453 31.0436 32.6866C31.0436 32.7383 31.0333 32.7797 31.0023 32.8211L27.3076 38.1051C27.2044 38.2499 27.0703 38.3223 26.9155 38.3223ZM31.5906 31.6216H28.8144C28.7215 31.6216 28.6493 31.5802 28.5977 31.4871C28.5771 31.4458 28.5667 31.4147 28.5667 31.3734C28.5667 31.3217 28.5771 31.27 28.608 31.2286L29.702 29.6775C29.8052 29.5431 29.9393 29.4707 30.1045 29.4707H32.8703C32.9632 29.4707 33.0458 29.5121 33.0871 29.6051C33.1077 29.6465 33.118 29.6775 33.118 29.7189C33.118 29.7706 33.1077 29.8119 33.0767 29.8533L31.9931 31.4044C31.8899 31.5492 31.7557 31.6216 31.5906 31.6216Z" fill="#31C800"/>
<path d="M33.8301 41.6829H26.6781C26.6059 41.6829 26.5439 41.6622 26.5027 41.6105C26.4614 41.5588 26.4304 41.5071 26.4304 41.4451C26.4304 41.3934 26.4407 41.352 26.4717 41.3107L27.1941 40.2869C27.7514 39.5321 28.4739 39.1495 29.3717 39.1495H31.0127C31.0849 39.1495 31.1468 39.1701 31.1881 39.2218C31.2294 39.2735 31.25 39.3253 31.25 39.3976C31.25 39.4493 31.2397 39.4907 31.2088 39.5321L30.3006 40.8246C30.2902 40.8453 30.2799 40.866 30.2799 40.897C30.2799 40.928 30.2902 40.9591 30.3109 40.9798C30.3315 41.0004 30.3625 41.0211 30.4038 41.0211H31.6112C31.9828 41.0211 32.2821 40.866 32.5091 40.5558L33.7888 38.7152C33.8198 38.6738 33.8301 38.6221 33.8301 38.5807C33.8301 38.5187 33.8095 38.4566 33.7579 38.4049C33.7166 38.3532 33.6547 38.3326 33.5824 38.3326H30.8166C30.6515 38.3326 30.5173 38.2602 30.4141 38.1257L29.7433 37.1744C29.6813 37.0917 29.6607 36.9986 29.6607 36.8952C29.6607 36.7918 29.6917 36.7091 29.7433 36.616L31.8589 33.5862C32.4162 32.8313 33.1387 32.4487 34.0365 32.4487H41.1886C41.2608 32.4487 41.3227 32.4694 41.364 32.5211C41.4053 32.5728 41.4363 32.6245 41.4363 32.6866C41.4363 32.7383 41.4259 32.7796 41.395 32.8313L35.9974 40.5558C35.7394 40.9281 35.4195 41.2072 35.0479 41.4037C34.6867 41.5898 34.2739 41.6829 33.8301 41.6829ZM34.4184 37.6501C34.501 37.6501 34.5629 37.6087 34.6145 37.5363L37.4423 33.4931C37.4732 33.4518 37.4835 33.4001 37.4835 33.3587C37.4835 33.2967 37.4629 33.2346 37.4216 33.1829C37.3803 33.1312 37.3184 33.1105 37.2462 33.1105H36.2657C35.8942 33.1105 35.5949 33.2656 35.3679 33.5759L33.1593 36.7298C33.1283 36.7711 33.118 36.8228 33.118 36.8745C33.118 36.9262 33.1283 36.9676 33.1593 37.0193L33.5205 37.5363C33.5721 37.6087 33.6444 37.6501 33.7269 37.6501H34.4184Z" fill="#31C800"/>
<path d="M42.169 38.3223H39.3928C39.2999 38.3223 39.2277 38.2809 39.1761 38.1879C39.1555 38.1465 39.1451 38.1155 39.1451 38.0741C39.1451 38.0224 39.1555 37.981 39.1864 37.9397L42.8811 32.6556C42.9843 32.5108 43.1185 32.4385 43.2836 32.4385H46.0495C46.1424 32.4385 46.2146 32.4798 46.2662 32.5729C46.2868 32.6143 46.2972 32.6453 46.2972 32.6866C46.2972 32.7383 46.2868 32.7797 46.2559 32.8211L42.5612 38.1051C42.4683 38.2499 42.3341 38.3223 42.169 38.3223ZM46.8545 31.6216H44.0783C43.9854 31.6216 43.9132 31.5802 43.8616 31.4871C43.8409 31.4458 43.8306 31.4147 43.8306 31.3734C43.8306 31.3217 43.8409 31.27 43.8719 31.2286L44.9658 29.6775C45.069 29.5431 45.2032 29.4707 45.3683 29.4707H48.1342C48.2374 29.4707 48.3096 29.5121 48.3509 29.6051C48.3716 29.6465 48.3819 29.6775 48.3819 29.7189C48.3819 29.7706 48.3716 29.8119 48.3406 29.8533L47.257 31.4044C47.1538 31.5492 47.0196 31.6216 46.8545 31.6216Z" fill="#31C800"/>
<path d="M46.9886 40.6488C46.9164 40.6488 46.8441 40.6177 46.7822 40.5454L45.4302 38.6117C45.3683 38.5289 45.3477 38.4359 45.3477 38.3325C45.3477 38.2291 45.3786 38.1463 45.4302 38.0533L48.6089 33.5034C48.6399 33.462 48.6502 33.4103 48.6502 33.369C48.6502 33.3069 48.6295 33.2449 48.5883 33.1932C48.547 33.1415 48.4851 33.1208 48.4128 33.1208H47.1021C47.0608 33.1208 47.0402 33.1104 47.0092 33.0794C46.9886 33.0587 46.9783 33.0277 46.9783 32.9967C46.9783 32.976 46.9886 32.945 46.9989 32.9243L47.1847 32.6555C47.2879 32.521 47.4221 32.4486 47.5872 32.4486H49.094C49.2591 32.4486 49.3932 32.3763 49.4965 32.2315L51.2819 29.667C51.3851 29.5326 51.5192 29.4602 51.6844 29.4602H54.4606C54.5534 29.4602 54.6257 29.5016 54.6773 29.5946C54.6979 29.636 54.7082 29.667 54.7082 29.7084C54.7082 29.7601 54.6979 29.8014 54.667 29.8428L53.1189 32.0557C53.0879 32.1074 53.0776 32.1488 53.0776 32.2005C53.0776 32.2625 53.0983 32.3142 53.1499 32.3659C53.1911 32.4176 53.2531 32.4383 53.3253 32.4383H54.636C54.6773 32.4383 54.6979 32.4486 54.7186 32.4693C54.7392 32.49 54.7495 32.521 54.7495 32.5521C54.7495 32.5727 54.7392 32.6038 54.7289 32.6244L54.5431 32.8933C54.4399 33.0277 54.3057 33.1001 54.1406 33.1001H52.6338C52.4687 33.1001 52.3346 33.1725 52.2314 33.3069L47.1847 40.5247C47.1331 40.6177 47.0608 40.6488 46.9886 40.6488Z" fill="#31C800"/>
<path d="M59.4143 39.9664C59.342 39.9664 59.2698 39.9353 59.2079 39.863L58.279 38.5394C58.1758 38.3946 58.0416 38.3222 57.8765 38.3222H53.9445C53.7793 38.3222 53.6452 38.2498 53.542 38.1154L52.8711 37.1641C52.8092 37.071 52.7886 36.9779 52.7886 36.8849C52.7886 36.7815 52.8195 36.6987 52.8711 36.6057L54.9868 33.5862C55.2448 33.2139 55.5648 32.9347 55.9363 32.7383C56.3078 32.5418 56.7206 32.4487 57.1644 32.4487H64.3164C64.3887 32.4487 64.4506 32.4694 64.4919 32.5211C64.5332 32.5728 64.5641 32.6245 64.5641 32.6866C64.5641 32.7383 64.5538 32.7796 64.5228 32.8313L59.6103 39.863C59.5484 39.925 59.4865 39.9664 59.4143 39.9664ZM57.5359 37.6501C57.6185 37.6501 57.6804 37.619 57.732 37.5467L60.5598 33.5035C60.5908 33.4621 60.6011 33.4104 60.6011 33.369C60.6011 33.307 60.5805 33.245 60.5289 33.1933C60.4876 33.1416 60.4257 33.1209 60.3534 33.1209H59.373C59.0014 33.1209 58.7021 33.276 58.4751 33.5862L56.2769 36.7401C56.2459 36.7815 56.2356 36.8332 56.2356 36.8745C56.2356 36.9262 56.2459 36.9676 56.2769 37.0193L56.6381 37.5467C56.669 37.588 56.7103 37.619 56.7516 37.6294C56.7929 37.6397 56.8445 37.6501 56.8961 37.6501H57.5359Z" fill="#31C800"/>
<path d="M64.1617 40.6385C64.0895 40.6385 64.0172 40.6075 63.9553 40.5351L62.6033 38.6014C62.5414 38.5187 62.5208 38.4256 62.5208 38.3222C62.5208 38.2188 62.5517 38.1361 62.6033 38.043L69.8173 27.723C69.8792 27.6507 69.9411 27.6196 70.0237 27.6196C70.0959 27.6196 70.1578 27.6507 70.2198 27.723L71.5717 29.6567C71.6336 29.7395 71.6646 29.8325 71.6646 29.9359C71.6646 30.0393 71.6336 30.1221 71.5717 30.2151L64.3578 40.5351C64.3062 40.6075 64.2339 40.6385 64.1617 40.6385Z" fill="#31C800"/>
<path d="M75.6895 38.3222H68.8884C68.7232 38.3222 68.5891 38.2498 68.4859 38.1154L68.0627 37.5053C68.0008 37.4122 67.9698 37.3192 67.9698 37.2261C67.9698 37.071 68.0421 36.9366 68.1763 36.8228L77.0105 30.5874C77.0827 30.5357 77.1137 30.4633 77.1137 30.3909C77.1137 30.3703 77.1137 30.3392 77.1034 30.3185C77.0518 30.2048 76.9795 30.1531 76.866 30.1531H72.872C72.8307 30.1531 72.7895 30.1324 72.7585 30.0911C72.7482 30.0704 72.7482 30.0497 72.7482 30.0394C72.7482 30.0187 72.7585 29.9876 72.7688 29.967L72.9546 29.6878C73.0578 29.5533 73.192 29.481 73.3571 29.481H80.1582C80.3233 29.481 80.4575 29.5533 80.5607 29.6878L80.9839 30.2979C81.0458 30.3909 81.0767 30.484 81.0767 30.5771C81.0767 30.7322 81.0045 30.8666 80.8703 30.9803L72.0361 37.2157C71.9638 37.2675 71.9329 37.3398 71.9329 37.4122C71.9329 37.4329 71.9329 37.4639 71.9432 37.4846C71.9948 37.5984 72.067 37.6501 72.1806 37.6501H76.1746C76.2158 37.6501 76.2571 37.6707 76.2881 37.7121C76.2984 37.7328 76.2984 37.7535 76.2984 37.7638C76.2984 37.7845 76.2881 37.8052 76.2778 37.8362L76.092 38.1154C75.9888 38.2498 75.8546 38.3222 75.6895 38.3222Z" fill="#31C800"/>
<path d="M84.7302 38.3223H79.3739C79.2088 38.3223 79.0746 38.2499 78.9714 38.1155L78.3006 37.1641C78.2387 37.0814 78.218 36.9884 78.218 36.8849C78.218 36.7815 78.249 36.6988 78.3006 36.6058L80.4163 33.5759C80.9736 32.8211 81.696 32.4385 82.5939 32.4385H87.9501C88.1153 32.4385 88.2494 32.5109 88.3526 32.6556L89.0235 33.607C89.0854 33.7 89.106 33.7931 89.106 33.8862C89.106 33.9896 89.0751 34.0826 89.0235 34.1654L86.9078 37.1848C86.6498 37.5571 86.3298 37.8363 85.9583 38.0328C85.5868 38.2292 85.1843 38.3223 84.7302 38.3223ZM82.5216 37.6502C82.8931 37.6502 83.1924 37.495 83.4195 37.1848L85.6177 34.0309C85.6487 33.9896 85.659 33.9379 85.659 33.8862C85.659 33.8345 85.6487 33.7931 85.6177 33.7517L85.2565 33.2244C85.2049 33.152 85.143 33.121 85.0604 33.121H84.8127C84.4412 33.121 84.1419 33.2761 83.9149 33.5863L81.7166 36.7402C81.6857 36.7815 81.6753 36.8332 81.6753 36.8849C81.6753 36.9367 81.6857 36.978 81.7166 37.0297L82.0778 37.5467C82.1294 37.6191 82.1914 37.6605 82.2739 37.6605H82.5216V37.6502Z" fill="#31C800"/>
<path d="M94.5448 40.6385C94.4726 40.6385 94.4004 40.6075 94.3384 40.5351L92.9865 38.6014C92.9245 38.5083 92.9039 38.4152 92.9039 38.3222C92.9039 38.2291 92.9349 38.136 92.9865 38.043L95.7936 34.0308C95.8246 33.9791 95.8349 33.9377 95.8349 33.886C95.8349 33.8343 95.8246 33.7826 95.7936 33.7413L95.4324 33.2139C95.3808 33.1415 95.3189 33.1105 95.226 33.1105H94.5345C94.452 33.1105 94.39 33.1415 94.3281 33.2139L90.9224 38.1154C90.8192 38.2498 90.685 38.3222 90.5199 38.3222H87.754C87.6818 38.3222 87.6199 38.3015 87.5786 38.2498C87.5373 38.1981 87.5063 38.1464 87.5063 38.074C87.5063 38.0326 87.5167 37.9809 87.5476 37.9396L92.4601 30.9079C92.5221 30.8356 92.584 30.7942 92.6665 30.7942C92.7491 30.7942 92.811 30.8356 92.8626 30.9079L93.7915 32.2419C93.8947 32.3763 94.0288 32.4487 94.194 32.4487H98.126C98.2911 32.4487 98.4253 32.5211 98.5285 32.6555L99.1993 33.6068C99.2613 33.6896 99.2922 33.7826 99.2922 33.886C99.2922 33.9894 99.2613 34.0722 99.1993 34.1652L94.7409 40.5351C94.679 40.6075 94.6171 40.6385 94.5448 40.6385Z" fill="#31C800"/>
<path d="M106.403 38.3223H99.9218C99.7566 38.3223 99.6225 38.2499 99.5193 38.1155L98.8484 37.1641C98.7865 37.0814 98.7659 36.9884 98.7659 36.8849C98.7659 36.7815 98.7968 36.6988 98.8484 36.6058L100.964 33.5759C101.521 32.8211 102.244 32.4385 103.142 32.4385H110.294C110.397 32.4385 110.469 32.4798 110.51 32.5729C110.531 32.6143 110.541 32.6556 110.541 32.697C110.541 32.7487 110.531 32.7901 110.5 32.8314L109.272 34.5893C109.014 34.9616 108.694 35.2408 108.323 35.4269C107.951 35.6234 107.538 35.7165 107.094 35.7165L103.224 35.7268C103.059 35.7268 102.925 35.7992 102.822 35.9336L102.254 36.7402C102.223 36.7815 102.213 36.8332 102.213 36.8849C102.213 36.9367 102.223 36.978 102.254 37.0297L102.626 37.5467C102.677 37.6191 102.739 37.6605 102.822 37.6605H103.513C103.596 37.6605 103.658 37.6295 103.709 37.5571C104.256 36.8643 104.958 36.523 105.815 36.523H107.456C107.528 36.523 107.59 36.5437 107.631 36.5954C107.672 36.6471 107.693 36.6988 107.693 36.7609C107.693 36.8126 107.683 36.8539 107.652 36.9056L106.805 38.1258C106.692 38.2499 106.558 38.3223 106.403 38.3223ZM104.876 35.0443C105.247 35.0443 105.546 34.8892 105.773 34.579L106.661 33.3071C106.671 33.2864 106.682 33.2657 106.682 33.2347C106.682 33.214 106.682 33.1933 106.671 33.183C106.64 33.1416 106.609 33.121 106.558 33.121H105.35C104.979 33.121 104.679 33.2761 104.452 33.5863L103.699 34.6617C103.668 34.7031 103.658 34.7548 103.658 34.8065C103.658 34.8478 103.668 34.8892 103.689 34.9202C103.74 35.003 103.813 35.0547 103.905 35.0547H104.876V35.0443Z" fill="#31C800"/>
</svg>
