<?xml version="1.0" encoding="utf-8"?>
<!-- Generator: Adobe Illustrator 27.2.0, SVG Export Plug-In . SVG Version: 6.00 Build 0)  -->
<svg version="1.1" id="Слой_1" xmlns="http://www.w3.org/2000/svg" xmlns:xlink="http://www.w3.org/1999/xlink" x="0px" y="0px"
	 viewBox="0 0 57.8 50" style="enable-background:new 0 0 57.8 50;" xml:space="preserve">
<style type="text/css">
	.st0{fill:#218C00;}
	.st1{fill:#31CF00;}
</style>
<g>
	<path class="st0" d="M53.8,28.8c0-0.1,0-0.2,0-0.2h-2.3c0.2,2.1,0.3,6.2,0,7.4c-0.6,2.7-1.6,3.6-3.6,3.1c-1.9-0.4-4.2-2-7.5-4.9
		c-1.9-1.7-2.9-2.4-4.6-3c-2-0.7-3.6-1-6-1.1C27,30,25,30.3,22.7,31c-2,0.7-3.5,1.6-5.7,3.5c-1.7,1.5-3.8,3-5,3.7
		c-2.4,1.2-3.9,1.1-4.8-0.3c-0.4-0.6-0.6-1.2-0.8-2.5c-0.2-1.2-0.2-4.8,0.1-6.8H4.3c-0.2,1.3-0.2,2.4-0.2,3.9c0,2.5,0.1,3.5,0.5,4.9
		c0.9,3.1,3,4.5,5.9,3.9c2.3-0.5,5-2.2,8.8-5.6c1.5-1.3,2.2-1.8,3.6-2.3c4.2-1.6,10.5-1.2,13.9,0.8c0.4,0.2,1.3,0.9,2,1.5
		c4.9,4.3,8.1,6,10.7,5.6c2.3-0.3,3.7-2.1,4.3-5.4C54.1,34.6,54.1,30.8,53.8,28.8z M49.4,13.9c-1.8-2.8-3.6-4.4-6-5.1
		c-0.7-0.2-1-0.2-2.3-0.2c-1.8,0-2.3,0.1-6.3,1.1c-3.2,0.8-4.8,1-5.8,1c-1.1,0-2.6-0.3-5.8-1c-1.5-0.3-3.1-0.7-3.8-0.8
		c-1.5-0.3-3.2-0.3-4.1-0.2c-1.1,0.2-1.7,0.4-2.6,0.9c-2.2,1.2-4,3.6-5.5,7h2.6c0.6-1.2,1.3-2.3,2-3.1c1-1.2,2.5-2.1,3.8-2.4
		c1-0.2,2.8-0.1,4.3,0.2c0.6,0.1,1.9,0.4,2.7,0.7c3.9,1,5.7,1.2,7.2,1.1c1.4-0.2,2.4-0.3,5.1-1c4-0.9,4.4-1,5.9-1
		c1.2,0,1.4,0,2.1,0.2c2.1,0.7,3.7,2.3,5.2,5.4h2.6C50.4,15.6,49.9,14.7,49.4,13.9z"/>
</g>
<g>
	<path class="st1" d="M5.1,26.8H0v-8.6h5.1L6,19.1V26L5.1,26.8z M1.7,25.1h2.6V20H1.7V25.1z"/>
	<path class="st1" d="M8.4,19.5H6.6v-1.7h1.7V19.5z M8.4,26.8H6.6V20h1.7V26.8z"/>
	<path class="st1" d="M14.1,29.4H9.9L9,28.5v-1.3h1.7v0.4h2.6V26l-0.9,0.9H9.9L9,26v-5.1L9.9,20h2.6l0.9,0.9V20H15v8.6L14.1,29.4z
		 M10.7,25.1h2.6v-3.4h-2.6V25.1z"/>
	<path class="st1" d="M17.4,19.5h-1.7v-1.7h1.7V19.5z M17.4,26.8h-1.7V20h1.7V26.8z"/>
	<path class="st1" d="M22.3,26.8h-2.6L18.8,26v-4.3H18V20h0.9v-1.7h1.7V20h1.7v1.7h-1.7v3.4h1.7V26.8z"/>
	<path class="st1" d="M26.3,26.8h-2.6L22.9,26v-2.6l0.9-0.9h3.4v-0.9h-2.6v0.4h-1.7v-1.3l0.9-0.9h4.3l0.9,0.9v6h-1.7V26L26.3,26.8z
		 M24.6,25.1h2.6v-0.9h-2.6V25.1z"/>
	<path class="st1" d="M31.3,26.8h-1.7v-9h1.7V26.8z"/>
	<path class="st1" d="M37.9,26.8h-6v-2.6l3.6-4.3h-3.6v-1.7h6V20l-4.3,5.1h4.3V26.8z"/>
	<path class="st1" d="M43.7,26.8h-4.3L38.6,26v-5.1l0.9-0.9h4.3l0.9,0.9V26L43.7,26.8z M40.3,25.1h2.6v-3.4h-2.6V25.1z"/>
	<path class="st1" d="M46.9,26.8h-1.7V20h1.7v0.9l0.9-0.9h2.6l0.9,0.9v6h-1.7v-5.1h-2.6V26.8z"/>
	<path class="st1" d="M57.8,26.8h-5.1L51.8,26v-5.1l0.9-0.9H57l0.9,0.9v3.4h-4.3v0.9h4.3V26.8z M53.6,22.5h2.6v-0.9h-2.6V22.5z"/>
</g>
</svg>
