<svg width="512" height="512" viewBox="0 0 512 512" fill="none" xmlns="http://www.w3.org/2000/svg">
<g clip-path="url(#clip0_62_45)">
<path opacity="0.963" fill-rule="evenodd" clip-rule="evenodd" d="M242.5 -0.5C251.167 -0.5 259.833 -0.5 268.5 -0.5C313.153 8.65377 339.987 35.6538 349 80.5C349.667 146.833 349.667 213.167 349 279.5C340.842 322.659 315.342 349.159 272.5 359C229.383 364.353 196.216 348.853 173 312.5C167.335 302.171 163.668 291.171 162 279.5C161.333 213.167 161.333 146.833 162 80.5C171.013 35.6538 197.847 8.65377 242.5 -0.5ZM244.5 20.5C285 17.9826 312.166 35.6492 326 73.5C327.777 80.0469 328.777 86.7136 329 93.5C329.5 120.831 329.667 148.165 329.5 175.5C280.167 175.5 230.833 175.5 181.5 175.5C181.333 148.165 181.5 120.831 182 93.5C185.139 53.871 205.972 29.5376 244.5 20.5ZM181.5 196.5C230.833 196.5 280.167 196.5 329.5 196.5C329.884 223.523 329.384 250.523 328 277.5C321.532 307.633 303.699 327.467 274.5 337C233.924 344.296 204.757 329.463 187 292.5C185.198 287.625 183.865 282.625 183 277.5C181.616 250.523 181.116 223.523 181.5 196.5Z" fill="#31CF00"/>
<path opacity="0.99" fill-rule="evenodd" clip-rule="evenodd" d="M-0.5 234.5C-0.5 175.833 -0.5 117.167 -0.5 58.5C3.34233 53.7541 8.34233 52.2541 14.5 54C16.3333 55.1667 17.8333 56.6667 19 58.5C19.6667 117.167 19.6667 175.833 19 234.5C12.5063 242.419 6.00632 242.419 -0.5 234.5Z" fill="#31CF00"/>
<path opacity="0.99" fill-rule="evenodd" clip-rule="evenodd" d="M511.5 58.5C511.5 117.167 511.5 175.833 511.5 234.5C504.994 242.419 498.494 242.419 492 234.5C491.333 175.833 491.333 117.167 492 58.5C495.655 53.7255 500.488 52.2255 506.5 54C508.362 55.3657 510.028 56.8657 511.5 58.5Z" fill="#31CF00"/>
<path opacity="0.937" fill-rule="evenodd" clip-rule="evenodd" d="M226.5 73.5C245.836 73.3334 265.17 73.5 284.5 74C290.626 78.3908 291.792 83.8908 288 90.5C285.932 92.5615 283.432 93.7282 280.5 94C263.833 94.6667 247.167 94.6667 230.5 94C221.225 91.1939 218.725 85.3605 223 76.5C224.518 75.8366 225.685 74.8366 226.5 73.5Z" fill="#31CF00"/>
<path opacity="0.987" fill-rule="evenodd" clip-rule="evenodd" d="M85.5 82.5C91.5895 81.1372 96.0895 83.1372 99 88.5C99.6667 136.5 99.6667 184.5 99 232.5C94.6604 238.864 89.1604 240.031 82.5 236C81.2986 235.097 80.4652 233.931 80 232.5C79.3333 184.5 79.3333 136.5 80 88.5C81.3597 85.9774 83.193 83.9774 85.5 82.5Z" fill="#31CF00"/>
<path opacity="0.983" fill-rule="evenodd" clip-rule="evenodd" d="M417.5 82.5C423.59 81.1372 428.09 83.1372 431 88.5C431.667 122.5 431.667 156.5 431 190.5C427.345 195.275 422.512 196.775 416.5 195C414.667 193.833 413.167 192.333 412 190.5C411.333 156.5 411.333 122.5 412 88.5C413.36 85.9774 415.193 83.9774 417.5 82.5Z" fill="#31CF00"/>
<path opacity="0.985" fill-rule="evenodd" clip-rule="evenodd" d="M46.5 92.5C51.9483 91.975 56.1149 93.975 59 98.5C59.6667 134.167 59.6667 169.833 59 205.5C55.3449 210.275 50.5116 211.775 44.5 210C42.6667 208.833 41.1667 207.333 40 205.5C39.3333 169.833 39.3333 134.167 40 98.5C41.4936 95.6865 43.6603 93.6865 46.5 92.5Z" fill="#31CF00"/>
<path opacity="0.985" fill-rule="evenodd" clip-rule="evenodd" d="M458.5 92.5C463.948 91.975 468.115 93.975 471 98.5C471.667 134.167 471.667 169.833 471 205.5C467.345 210.275 462.512 211.775 456.5 210C454.667 208.833 453.167 207.333 452 205.5C451.333 169.833 451.333 134.167 452 98.5C453.494 95.6865 455.66 93.6865 458.5 92.5Z" fill="#31CF00"/>
<path opacity="0.938" fill-rule="evenodd" clip-rule="evenodd" d="M227.5 110.5C246.17 110.333 264.836 110.5 283.5 111C290.495 114.986 291.995 120.486 288 127.5C286.2 129.317 284.034 130.484 281.5 131C264.167 131.667 246.833 131.667 229.5 131C221.843 128.372 219.343 123.206 222 115.5C223.73 113.598 225.563 111.931 227.5 110.5Z" fill="#31CF00"/>
<path opacity="0.971" fill-rule="evenodd" clip-rule="evenodd" d="M126.5 117.5C132.094 116.743 136.261 118.743 139 123.5C139.667 142.5 139.667 161.5 139 180.5C135.345 185.275 130.512 186.775 124.5 185C122.667 183.833 121.167 182.333 120 180.5C119.333 161.5 119.333 142.5 120 123.5C121.436 120.558 123.603 118.558 126.5 117.5Z" fill="#31CF00"/>
<path opacity="0.971" fill-rule="evenodd" clip-rule="evenodd" d="M378.5 117.5C384.094 116.743 388.261 118.743 391 123.5C391.667 142.5 391.667 161.5 391 180.5C387.345 185.275 382.512 186.775 376.5 185C374.667 183.833 373.167 182.333 372 180.5C371.333 161.5 371.333 142.5 372 123.5C373.436 120.558 375.603 118.558 378.5 117.5Z" fill="#31CF00"/>
<path opacity="0.889" fill-rule="evenodd" clip-rule="evenodd" d="M418.5 217.5C429.032 217.199 433.199 222.199 431 232.5C426.66 238.864 421.16 240.031 414.5 236C411.64 232.319 410.807 228.152 412 223.5C413.494 220.686 415.66 218.686 418.5 217.5Z" fill="#31CF00"/>
<path opacity="0.898" fill-rule="evenodd" clip-rule="evenodd" d="M292.5 221.5C303.437 219.938 308.27 224.605 307 235.5C303.82 241.234 298.987 243.067 292.5 241C287.725 237.345 286.225 232.512 288 226.5C289.366 224.638 290.866 222.972 292.5 221.5Z" fill="#31CF00"/>
<path opacity="0.957" fill-rule="evenodd" clip-rule="evenodd" d="M330.5 511.5C280.5 511.5 230.5 511.5 180.5 511.5C176.43 508.673 174.43 504.673 174.5 499.5C178.608 470.392 195.275 454.059 224.5 450.5C225.666 434.177 225.833 417.844 225 401.5C157.427 381.583 121.26 336.417 116.5 266C119.328 256.253 125.328 253.587 134.5 258C135.701 258.903 136.535 260.069 137 261.5C140.005 324.066 171.505 363.899 231.5 381C280.664 389.063 320.497 373.563 351 334.5C360.962 320.293 367.629 304.626 371 287.5C371.673 278.031 373.007 268.698 375 259.5C380.667 254.167 386.333 254.167 392 259.5C392.912 261.659 393.745 263.825 394.5 266C389.74 336.417 353.573 381.583 286 401.5C285.167 417.844 285.334 434.177 286.5 450.5C315.725 454.059 332.392 470.392 336.5 499.5C336.57 504.673 334.57 508.673 330.5 511.5ZM246.5 404.5C252.5 404.5 258.5 404.5 264.5 404.5C264.5 419.833 264.5 435.167 264.5 450.5C258.5 450.5 252.5 450.5 246.5 450.5C246.5 435.167 246.5 419.833 246.5 404.5ZM224.5 471.5C247.535 471.076 270.535 471.576 293.5 473C302.685 476.184 309.351 482.184 313.5 491C274.833 491.667 236.167 491.667 197.5 491C203.086 479.56 212.086 473.06 224.5 471.5Z" fill="#31CF00"/>
<path opacity="0.935" fill-rule="evenodd" clip-rule="evenodd" d="M294.5 255.5C304.125 254.958 308.459 259.458 307.5 269C305.456 290.717 294.456 306.05 274.5 315C268.978 316.871 263.311 318.038 257.5 318.5C246.402 317.649 242.902 311.982 247 301.5C248.579 299.959 250.413 298.792 252.5 298C268.124 297.946 278.957 290.779 285 276.5C285.929 270.728 287.262 265.061 289 259.5C290.812 258.023 292.645 256.69 294.5 255.5Z" fill="#31CF00"/>
</g>
<defs>
<clipPath id="clip0_62_45">
<rect width="512" height="512" fill="white"/>
</clipPath>
</defs>
</svg>
