<svg width="512" height="512" viewBox="0 0 512 512" fill="none" xmlns="http://www.w3.org/2000/svg">
<path opacity="0.958" fill-rule="evenodd" clip-rule="evenodd" d="M245.5 9.50001C310.07 8.19367 359.57 34.527 394 88.5C405.606 108.319 412.606 129.652 415 152.5C415.667 221.167 415.667 289.833 415 358.5C406.799 416.782 376.633 459.282 324.5 486C272.152 508.766 221.152 506.099 171.5 478C128.29 449.783 103.123 409.95 96 358.5C95.3333 289.833 95.3333 221.167 96 152.5C103.283 97.5977 130.783 56.431 178.5 29C199.651 17.9674 221.984 11.4674 245.5 9.50001ZM240.5 32.5C241.833 32.5 243.167 32.5 244.5 32.5C244.667 43.1719 244.5 53.8385 244 64.5C233.408 68.7582 226.741 76.4249 224 87.5C223.333 114.167 223.333 140.833 224 167.5C226.741 178.575 233.408 186.242 244 190.5C244.5 201.495 244.667 212.495 244.5 223.5C202.167 223.5 159.833 223.5 117.5 223.5C117.333 201.164 117.5 178.831 118 156.5C125.469 101.038 154.969 62.5381 206.5 41C217.73 37.1924 229.063 34.3591 240.5 32.5ZM266.5 32.5C311.394 37.5183 346.561 58.5183 372 95.5C383.777 114.164 390.777 134.497 393 156.5C393.5 178.831 393.667 201.164 393.5 223.5C351.167 223.5 308.833 223.5 266.5 223.5C266.333 212.495 266.5 201.495 267 190.5C277.592 186.242 284.259 178.575 287 167.5C287.667 140.833 287.667 114.167 287 87.5C284.259 76.4249 277.592 68.7582 267 64.5C266.5 53.8385 266.333 43.1719 266.5 32.5ZM252.5 85.5C258.425 84.8751 262.591 87.2085 265 92.5C265.667 115.833 265.667 139.167 265 162.5C261.179 169.782 255.679 171.282 248.5 167C247.54 165.581 246.707 164.081 246 162.5C245.333 139.167 245.333 115.833 246 92.5C247.018 88.9853 249.185 86.652 252.5 85.5ZM117.5 245.5C209.5 245.5 301.5 245.5 393.5 245.5C393.667 281.835 393.5 318.168 393 354.5C385.827 407.655 357.993 445.488 309.5 468C249.976 489.696 197.809 478.196 153 433.5C132.931 411.018 121.265 384.684 118 354.5C117.5 318.168 117.333 281.835 117.5 245.5Z" fill="#31CF00"/>
</svg>
