<svg width="683" height="683" viewBox="0 0 683 683" fill="none" xmlns="http://www.w3.org/2000/svg">
<g clip-path="url(#clip0_62_85)">
<path d="M334 3.19998C331.066 4.79998 314 15.8667 296.133 27.7333L263.733 49.0667L256.8 48.5333C229.6 46.2667 177.333 44.1333 174.533 45.2C172.8 45.8667 170 47.7333 168.533 49.4667C166.933 51.2 157.2 69.4667 146.933 90L128.266 127.333L90.2664 146.4C48.9331 167.067 45.1998 169.733 45.4664 178.4C45.4664 181.067 46.5331 201.2 47.7331 223.2L49.9998 262.933L26.2664 299.067C12.7997 319.467 2.13308 337.067 1.73308 339.467C0.799747 344.933 1.33308 345.867 27.4664 385.6L49.7331 419.333L47.4664 463.733C45.1998 504.933 45.1998 508.267 47.3331 511.467C50.2664 516 53.1998 517.733 93.0664 537.733L128.266 555.333L146.933 592.667C165.733 630.267 168.8 635.333 174.4 637.467C176.933 638.4 226.266 636.4 255.466 634.133L263.6 633.467L298 656.133C336.4 681.467 338.533 682.667 343.066 682.667C345.066 682.667 360.8 673.2 383.466 658.133L420.666 633.733L464.533 636.133C506.533 638.533 508.533 638.533 512.533 636.267C516 634.4 520.133 627.067 536.666 594.667L556.666 555.333L595.333 535.867C616.533 525.067 634.933 514.933 636.266 513.333C639.333 509.6 639.333 501.733 636.666 454.8L634.533 419.6L658.666 383.333C679.866 351.467 682.666 346.533 682.666 341.733C682.666 335.867 681.333 333.467 651.733 288.533L634.933 263.067L637.333 219.867C639.733 179.2 639.733 176.4 637.6 172C635.6 167.733 631.6 165.467 596 147.2L556.666 127.2L536.666 88C520.4 56.1333 515.866 48.2667 512.666 46.4C508.8 44.2667 506.4 44.2667 464.666 46.5333L420.8 48.8L386 25.8667C366.8 13.3333 349.866 2.39998 348.266 1.46665C344.133 -0.800015 339.866 -0.266682 334 3.19998ZM378.533 55.2C409.733 75.6 412.8 77.3333 418.4 77.3333C421.733 77.3333 440.533 76.4 460.4 75.2C480.133 74.1333 496.8 73.6 497.466 74.2667C498 74.8 506.4 90.9333 516.133 110C525.866 129.067 534.666 145.733 535.866 147.2C537.066 148.533 554.266 157.733 574 167.6C593.866 177.467 610.133 185.733 610.266 185.867C610.533 186 609.6 204.667 608.4 227.2C606.8 255.867 606.533 269.2 607.466 271.733C608.266 273.733 618.666 290.133 630.533 308.267L652.266 341.333L629.466 376.133L606.666 410.933V419.2C606.666 423.6 607.6 442.933 608.666 461.867C609.866 480.8 610.533 496.533 610.4 496.667C610.133 496.933 593.866 505.2 574 515.067C554.266 524.933 537.066 534.133 535.866 535.467C534.666 536.933 525.733 553.867 516 573.2C506.133 592.4 497.466 608.533 496.533 608.933C495.6 609.2 478.8 608.533 458.933 607.467C439.2 606.267 420.666 605.333 417.733 605.333C412.933 605.333 408.133 608.133 378.8 627.333C360.266 639.6 344.4 649.733 343.466 650.133C342.533 650.533 326 640.4 306.8 627.867L271.733 604.8L229.733 607.067C206.533 608.4 187.466 609.2 187.333 609.067C187.066 608.8 179.066 592.8 169.333 573.333C159.6 553.867 150.666 536.933 149.466 535.467C148.266 534.133 131.2 524.933 111.333 515.067C91.5998 505.2 75.0664 496.8 74.7998 496.533C74.5331 496.267 75.3331 477.733 76.5331 455.333C77.8664 432.933 78.3998 413.467 77.9998 411.867C77.4664 410.4 67.1998 394.133 55.1998 375.867C43.1997 357.6 33.3331 342.133 33.3331 341.333C33.3331 340.667 43.0664 325.2 55.0664 307.067C67.0664 288.933 77.1998 272.8 77.8664 271.333C78.3998 269.867 77.8664 250.267 76.5331 227.6C75.3331 205.067 74.5331 186.4 74.7998 186.133C75.0664 185.867 91.7331 177.467 111.733 167.467C141.733 152.4 148.666 148.4 150.8 144.933C152.133 142.533 160.933 125.6 170.133 107.333C179.466 88.9333 187.2 73.8667 187.333 73.6C187.6 73.3333 203.866 74.1333 223.733 75.2C243.466 76.4 262.533 77.3333 266.266 77.3333C272.533 77.3333 274.266 76.4 306.8 54.8C325.466 42.2667 341.6 32.4 342.666 32.5333C343.733 32.8 359.866 42.9333 378.533 55.2Z" fill="#31CF00"/>
<path d="M306.133 132C224.533 146.667 157.333 208.4 137.2 287.2C130.533 313.067 128.533 346.533 132 370.133C145.2 460 210.933 530.267 299.333 549.333C318.4 553.467 354.267 554.4 373.333 551.467C406.4 546.133 433.067 535.867 460.267 517.733C561.6 450.4 585.2 311.733 512 214C480.933 172.533 436.8 144.533 384.667 133.333C365.067 129.067 326.267 128.4 306.133 132ZM367.333 159.333C445.6 170.4 506.267 227.467 522.8 305.467C526.933 325.2 526.933 357.467 522.8 377.2C510.8 433.6 476.267 479.2 425.733 505.067C323.333 557.467 198.133 503.2 166 392.667C160.133 372.133 158.267 357.6 159.067 335.333C160.133 307.333 165.333 285.733 176.667 262C211.333 189.867 288.933 148.133 367.333 159.333Z" fill="#31CF00"/>
<path d="M416.266 280.267C412.933 283.467 388.933 306 363.066 330.4L316.133 374.667L289.733 347.867C265.2 323.067 262.933 321.067 257.733 320.4C252.533 319.733 251.6 320.133 247.333 324.4C242 329.733 241.2 335.733 245.066 341.467C246.266 343.467 261.2 359.067 278 376.267C297.866 396.667 309.866 407.867 312 408.267C320 409.733 323.066 407.333 374.8 358.533C435.866 301.067 440.933 296.133 442 291.6C444.266 282.667 437.866 274.667 428.4 274.667C423.466 274.667 421.733 275.467 416.266 280.267Z" fill="#31CF00"/>
</g>
<defs>
<clipPath id="clip0_62_85">
<rect width="682.667" height="682.667" fill="white"/>
</clipPath>
</defs>
</svg>
