<svg width="512" height="512" viewBox="0 0 512 512" fill="none" xmlns="http://www.w3.org/2000/svg">
<g clip-path="url(#clip0_62_28)">
<path opacity="0.958" fill-rule="evenodd" clip-rule="evenodd" d="M238.5 -0.5C249.833 -0.5 261.167 -0.5 272.5 -0.5C334.68 9.6913 376.847 44.358 399 103.5C401.793 113.005 403.793 122.672 405 132.5C405.667 161.833 405.667 191.167 405 220.5C402.157 230.364 395.991 237.197 386.5 241C376.914 242.42 367.247 242.92 357.5 242.5C355.093 269.75 344.76 293.417 326.5 313.5C332.039 324.745 337.706 335.911 343.5 347C359.5 352.333 375.5 357.667 391.5 363C442.895 384.41 473.729 422.577 484 477.5C485.411 487.13 485.744 496.797 485 506.5C483.634 508.362 482.134 510.028 480.5 511.5C330.5 511.5 180.5 511.5 30.5001 511.5C28.8658 510.028 27.3658 508.362 26.0001 506.5C25.3298 448.663 49.1632 404.163 97.5001 373C104.595 369.119 111.929 365.785 119.5 363C135.5 357.667 151.5 352.333 167.5 347C173.294 335.911 178.961 324.745 184.5 313.5C175.895 304.464 168.895 294.297 163.5 283C135.345 283.58 122.512 269.746 125 241.5C115.172 237.671 108.838 230.671 106 220.5C105.333 191.167 105.333 161.833 106 132.5C115.331 69.6387 149.831 27.472 209.5 6C219.195 3.32272 228.862 1.15605 238.5 -0.5ZM240.5 20.5C296.029 17.1789 338.529 38.8455 368 85.5C377.233 102.367 382.733 120.367 384.5 139.5C378.167 139.5 371.833 139.5 365.5 139.5C362.801 90.925 338.468 58.7584 292.5 43C280.36 40.0387 268.027 38.8721 255.5 39.5C216.797 37.2725 185.964 51.6058 163 82.5C151.429 99.7147 145.596 118.715 145.5 139.5C139.167 139.5 132.833 139.5 126.5 139.5C133.645 83.5241 163.645 45.6908 216.5 26C224.563 23.8247 232.563 21.9913 240.5 20.5ZM246.5 59.5C272.479 56.9913 295.812 63.4913 316.5 79C337.039 97.5877 346.372 120.754 344.5 148.5C304.015 144.42 269.349 128.253 240.5 100C210.935 98.2058 186.435 108.372 167 130.5C175.736 86.9303 202.236 63.2636 246.5 59.5ZM224.5 120.5C227.187 120.336 229.854 120.503 232.5 121C264.109 149.961 301.442 166.128 344.5 169.5C342.813 196.993 339.647 224.327 335 251.5C325.583 294.422 299.083 318.089 255.5 322.5C226.009 320.926 203.343 307.759 187.5 283C193.833 282.333 200.167 282.333 206.5 283C210.329 292.828 217.329 299.162 227.5 302C239.5 302.667 251.5 302.667 263.5 302C282.113 294.609 288.946 281.109 284 261.5C276.036 245.769 263.203 239.435 245.5 242.5C227.53 239.485 214.53 245.985 206.5 262C197.149 262.832 187.816 262.665 178.5 261.5C172.099 231.001 168.099 200.168 166.5 169C175.661 149.402 189.994 134.735 209.5 125C214.577 123.32 219.577 121.82 224.5 120.5ZM125.5 159.5C132.167 159.5 138.833 159.5 145.5 159.5C145.845 180.294 147.512 200.96 150.5 221.5C144.126 222.819 137.792 222.653 131.5 221C129.667 219.833 128.167 218.333 127 216.5C125.551 197.555 125.051 178.555 125.5 159.5ZM365.5 159.5C372.167 159.5 378.833 159.5 385.5 159.5C385.949 178.555 385.449 197.555 384 216.5C379.887 221.375 374.554 223.375 368 222.5C365.5 222.167 363 221.833 360.5 221.5C363.488 200.96 365.155 180.294 365.5 159.5ZM145.5 242.5C148.167 242.5 150.833 242.5 153.5 242.5C154.452 249.198 155.285 255.865 156 262.5C152.21 261.714 149.21 259.714 147 256.5C145.775 251.915 145.275 247.248 145.5 242.5ZM235.5 262.5C243.571 262.137 251.571 262.637 259.5 264C266.167 269.667 266.167 275.333 259.5 281C250.167 283 240.833 283 231.5 281C224.833 275.333 224.833 269.667 231.5 264C233.058 263.79 234.391 263.29 235.5 262.5ZM310.5 330.5C315.473 338.947 319.806 347.78 323.5 357C318.079 374.263 310.913 390.763 302 406.5C291.167 395.667 280.333 384.833 269.5 374C283.371 359.631 297.038 345.131 310.5 330.5ZM197.5 334.5C211.914 347.411 225.914 360.911 239.5 375C229.448 385.596 219.282 396.096 209 406.5C200.087 390.763 192.921 374.263 187.5 357C190.701 349.432 194.035 341.932 197.5 334.5ZM237.5 342.5C237.735 341.903 238.235 341.57 239 341.5C244.634 342.346 250.301 343.013 256 343.5C260.488 342.667 264.988 342.5 269.5 343C264.291 348.041 259.291 353.208 254.5 358.5C248.813 353.145 243.146 347.812 237.5 342.5ZM165.5 369.5C166.978 369.238 168.311 369.571 169.5 370.5C177.71 392.254 187.543 413.254 199 433.5C211.5 452.667 224 471.833 236.5 491C173.168 491.5 109.834 491.667 46.5001 491.5C51.9696 441.015 77.6363 405.182 123.5 384C137.71 379.431 151.71 374.598 165.5 369.5ZM341.5 369.5C358.703 374.29 375.703 379.79 392.5 386C435.2 408.232 459.2 443.399 464.5 491.5C401.166 491.667 337.832 491.5 274.5 491C288.728 469.769 302.561 448.269 316 426.5C326.159 408.188 334.659 389.188 341.5 369.5ZM253.5 390.5C266.621 401.787 278.954 413.954 290.5 427C279.199 445.11 267.532 462.943 255.5 480.5C243.454 462.906 231.787 445.073 220.5 427C221.651 425.177 222.818 423.344 224 421.5C234.403 411.6 244.236 401.267 253.5 390.5Z" fill="#31CF00"/>
<path opacity="0.891" fill-rule="evenodd" clip-rule="evenodd" d="M360.5 395.5C372.324 393.824 377.158 398.824 375 410.5C371.345 415.275 366.512 416.775 360.5 415C355.725 411.345 354.225 406.512 356 400.5C357.366 398.638 358.866 396.972 360.5 395.5Z" fill="#31CF00"/>
<path opacity="0.927" fill-rule="evenodd" clip-rule="evenodd" d="M396.5 414.5C400.792 414.035 404.792 414.868 408.5 417C419.544 426.043 428.377 436.876 435 449.5C437.967 462.864 432.8 467.698 419.5 464C415.791 458.081 411.958 452.248 408 446.5C402.903 440.947 397.57 435.614 392 430.5C388.994 423.771 390.494 418.438 396.5 414.5Z" fill="#31CF00"/>
</g>
<defs>
<clipPath id="clip0_62_28">
<rect width="512" height="512" fill="white"/>
</clipPath>
</defs>
</svg>
